<svg xmlns="http://www.w3.org/2000/svg" xmlns:xlink="http://www.w3.org/1999/xlink" width="500" zoomAndPan="magnify" viewBox="0 0 375 374.999991" height="500" preserveAspectRatio="xMidYMid meet" version="1.0"><defs><g/></defs><g fill="#ff8a00" fill-opacity="0.702"><g transform="translate(76.769502, 221.530605)"><g><path d="M 33.09375 -55.484375 C 33.414062 -56.078125 33.898438 -56.375 34.546875 -56.375 L 46.78125 -56.375 C 47.101562 -56.375 47.359375 -56.265625 47.546875 -56.046875 C 47.734375 -55.835938 47.800781 -55.539062 47.75 -55.15625 L 41.15625 -1.203125 C 41.101562 -0.828125 40.953125 -0.53125 40.703125 -0.3125 C 40.460938 -0.101562 40.179688 0 39.859375 0 L 27.46875 0 C 27.144531 0 26.890625 -0.101562 26.703125 -0.3125 C 26.515625 -0.53125 26.445312 -0.828125 26.5 -1.203125 L 30.515625 -34.140625 C 30.578125 -34.359375 30.539062 -34.476562 30.40625 -34.5 C 30.269531 -34.53125 30.144531 -34.46875 30.03125 -34.3125 L 24.5625 -26.421875 L 23.59375 -24.96875 L 23.515625 -24.96875 L 19.40625 -34.3125 C 19.351562 -34.46875 19.269531 -34.53125 19.15625 -34.5 C 19.050781 -34.476562 18.972656 -34.359375 18.921875 -34.140625 L 14.890625 -1.203125 C 14.835938 -0.828125 14.703125 -0.53125 14.484375 -0.3125 C 14.273438 -0.101562 13.984375 0 13.609375 0 L 1.28125 0 C 0.90625 0 0.625 -0.101562 0.4375 -0.3125 C 0.25 -0.53125 0.179688 -0.828125 0.234375 -1.203125 L 6.84375 -55.15625 C 6.894531 -55.539062 7.039062 -55.835938 7.28125 -56.046875 C 7.53125 -56.265625 7.816406 -56.375 8.140625 -56.375 L 20.375 -56.375 C 21.019531 -56.375 21.445312 -56.078125 21.65625 -55.484375 L 25.9375 -45.015625 C 26.039062 -44.796875 26.203125 -44.796875 26.421875 -45.015625 Z M 33.09375 -55.484375 "/></g></g></g><g fill="#ff8a00" fill-opacity="0.702"><g transform="translate(120.981116, 221.530605)"><g><path d="M 25.046875 0 C 24.296875 0 23.945312 -0.375 24 -1.125 L 23.84375 -7.25 C 23.894531 -7.351562 23.863281 -7.445312 23.75 -7.53125 C 23.644531 -7.613281 23.539062 -7.65625 23.4375 -7.65625 L 16.421875 -7.65625 C 16.160156 -7.65625 15.972656 -7.519531 15.859375 -7.25 L 14.328125 -1.125 C 14.171875 -0.375 13.71875 0 12.96875 0 L 0.71875 0 C -0.0820312 0 -0.375 -0.425781 -0.15625 -1.28125 L 17.5625 -55.328125 C 17.769531 -56.023438 18.25 -56.375 19 -56.375 L 33.265625 -56.375 C 34.015625 -56.375 34.414062 -56.023438 34.46875 -55.328125 L 38.890625 -1.28125 L 38.890625 -1.125 C 38.890625 -0.375 38.488281 0 37.6875 0 Z M 19.171875 -19.65625 C 19.054688 -19.382812 19.132812 -19.25 19.40625 -19.25 L 23.1875 -19.25 C 23.351562 -19.25 23.488281 -19.382812 23.59375 -19.65625 L 23.28125 -34.546875 C 23.28125 -34.765625 23.210938 -34.859375 23.078125 -34.828125 C 22.941406 -34.804688 22.875 -34.710938 22.875 -34.546875 Z M 19.171875 -19.65625 "/></g></g></g><g fill="#ff8a00" fill-opacity="0.702"><g transform="translate(162.454673, 221.530605)"><g><path d="M 16.75 0.640625 C 12.132812 0.640625 8.484375 -0.550781 5.796875 -2.9375 C 3.109375 -5.320312 1.765625 -8.503906 1.765625 -12.484375 C 1.765625 -12.859375 1.820312 -13.53125 1.9375 -14.5 L 2.25 -16.984375 C 2.300781 -17.367188 2.445312 -17.664062 2.6875 -17.875 C 2.9375 -18.09375 3.222656 -18.203125 3.546875 -18.203125 L 15.78125 -18.203125 C 16.101562 -18.203125 16.359375 -18.09375 16.546875 -17.875 C 16.734375 -17.664062 16.800781 -17.367188 16.75 -16.984375 L 16.59375 -15.21875 C 16.476562 -14.363281 16.582031 -13.664062 16.90625 -13.125 C 17.226562 -12.59375 17.710938 -12.328125 18.359375 -12.328125 C 19.054688 -12.328125 19.644531 -12.617188 20.125 -13.203125 C 20.613281 -13.796875 20.859375 -14.519531 20.859375 -15.375 C 20.859375 -16.1875 20.46875 -17.019531 19.6875 -17.875 C 18.90625 -18.738281 17.414062 -20.054688 15.21875 -21.828125 C 13.070312 -23.597656 11.300781 -25.164062 9.90625 -26.53125 C 8.507812 -27.90625 7.300781 -29.597656 6.28125 -31.609375 C 5.257812 -33.617188 4.75 -35.914062 4.75 -38.5 C 4.75 -38.976562 4.800781 -39.804688 4.90625 -40.984375 C 5.5 -45.765625 7.484375 -49.628906 10.859375 -52.578125 C 14.242188 -55.535156 18.460938 -57.015625 23.515625 -57.015625 C 28.128906 -57.015625 31.765625 -55.78125 34.421875 -53.3125 C 37.078125 -50.84375 38.40625 -47.515625 38.40625 -43.328125 C 38.40625 -42.835938 38.351562 -42.054688 38.25 -40.984375 L 38.015625 -39.21875 C 37.960938 -38.84375 37.8125 -38.546875 37.5625 -38.328125 C 37.320312 -38.117188 37.039062 -38.015625 36.71875 -38.015625 L 24.5625 -38.015625 C 24.238281 -38.015625 23.984375 -38.117188 23.796875 -38.328125 C 23.609375 -38.546875 23.539062 -38.84375 23.59375 -39.21875 L 23.84375 -41.3125 C 23.894531 -42.113281 23.742188 -42.769531 23.390625 -43.28125 C 23.046875 -43.789062 22.550781 -44.046875 21.90625 -44.046875 C 21.15625 -44.046875 20.535156 -43.722656 20.046875 -43.078125 C 19.566406 -42.441406 19.328125 -41.582031 19.328125 -40.5 C 19.328125 -39.59375 19.703125 -38.65625 20.453125 -37.6875 C 21.203125 -36.71875 22.597656 -35.375 24.640625 -33.65625 C 27.378906 -31.351562 29.472656 -29.488281 30.921875 -28.0625 C 32.367188 -26.644531 33.507812 -25.085938 34.34375 -23.390625 C 35.175781 -21.703125 35.59375 -19.785156 35.59375 -17.640625 C 35.59375 -17.203125 35.539062 -16.445312 35.4375 -15.375 C 34.789062 -10.488281 32.757812 -6.597656 29.34375 -3.703125 C 25.9375 -0.804688 21.738281 0.640625 16.75 0.640625 Z M 16.75 0.640625 "/></g></g></g><g fill="#0ca5e9" fill-opacity="1"><g transform="translate(74.37545, 219.374986)"><g><path d="M 33.09375 -55.484375 C 33.414062 -56.078125 33.898438 -56.375 34.546875 -56.375 L 46.78125 -56.375 C 47.101562 -56.375 47.359375 -56.265625 47.546875 -56.046875 C 47.734375 -55.835938 47.800781 -55.539062 47.75 -55.15625 L 41.15625 -1.203125 C 41.101562 -0.828125 40.953125 -0.53125 40.703125 -0.3125 C 40.460938 -0.101562 40.179688 0 39.859375 0 L 27.46875 0 C 27.144531 0 26.890625 -0.101562 26.703125 -0.3125 C 26.515625 -0.53125 26.445312 -0.828125 26.5 -1.203125 L 30.515625 -34.140625 C 30.578125 -34.359375 30.539062 -34.476562 30.40625 -34.5 C 30.269531 -34.53125 30.144531 -34.46875 30.03125 -34.3125 L 24.5625 -26.421875 L 23.59375 -24.96875 L 23.515625 -24.96875 L 19.40625 -34.3125 C 19.351562 -34.46875 19.269531 -34.53125 19.15625 -34.5 C 19.050781 -34.476562 18.972656 -34.359375 18.921875 -34.140625 L 14.890625 -1.203125 C 14.835938 -0.828125 14.703125 -0.53125 14.484375 -0.3125 C 14.273438 -0.101562 13.984375 0 13.609375 0 L 1.28125 0 C 0.90625 0 0.625 -0.101562 0.4375 -0.3125 C 0.25 -0.53125 0.179688 -0.828125 0.234375 -1.203125 L 6.84375 -55.15625 C 6.894531 -55.539062 7.039062 -55.835938 7.28125 -56.046875 C 7.53125 -56.265625 7.816406 -56.375 8.140625 -56.375 L 20.375 -56.375 C 21.019531 -56.375 21.445312 -56.078125 21.65625 -55.484375 L 25.9375 -45.015625 C 26.039062 -44.796875 26.203125 -44.796875 26.421875 -45.015625 Z M 33.09375 -55.484375 "/></g></g></g><g fill="#0ca5e9" fill-opacity="1"><g transform="translate(118.587063, 219.374986)"><g><path d="M 25.046875 0 C 24.296875 0 23.945312 -0.375 24 -1.125 L 23.84375 -7.25 C 23.894531 -7.351562 23.863281 -7.445312 23.75 -7.53125 C 23.644531 -7.613281 23.539062 -7.65625 23.4375 -7.65625 L 16.421875 -7.65625 C 16.160156 -7.65625 15.972656 -7.519531 15.859375 -7.25 L 14.328125 -1.125 C 14.171875 -0.375 13.71875 0 12.96875 0 L 0.71875 0 C -0.0820312 0 -0.375 -0.425781 -0.15625 -1.28125 L 17.5625 -55.328125 C 17.769531 -56.023438 18.25 -56.375 19 -56.375 L 33.265625 -56.375 C 34.015625 -56.375 34.414062 -56.023438 34.46875 -55.328125 L 38.890625 -1.28125 L 38.890625 -1.125 C 38.890625 -0.375 38.488281 0 37.6875 0 Z M 19.171875 -19.65625 C 19.054688 -19.382812 19.132812 -19.25 19.40625 -19.25 L 23.1875 -19.25 C 23.351562 -19.25 23.488281 -19.382812 23.59375 -19.65625 L 23.28125 -34.546875 C 23.28125 -34.765625 23.210938 -34.859375 23.078125 -34.828125 C 22.941406 -34.804688 22.875 -34.710938 22.875 -34.546875 Z M 19.171875 -19.65625 "/></g></g></g><g fill="#0ca5e9" fill-opacity="1"><g transform="translate(160.06062, 219.374986)"><g><path d="M 16.75 0.640625 C 12.132812 0.640625 8.484375 -0.550781 5.796875 -2.9375 C 3.109375 -5.320312 1.765625 -8.503906 1.765625 -12.484375 C 1.765625 -12.859375 1.820312 -13.53125 1.9375 -14.5 L 2.25 -16.984375 C 2.300781 -17.367188 2.445312 -17.664062 2.6875 -17.875 C 2.9375 -18.09375 3.222656 -18.203125 3.546875 -18.203125 L 15.78125 -18.203125 C 16.101562 -18.203125 16.359375 -18.09375 16.546875 -17.875 C 16.734375 -17.664062 16.800781 -17.367188 16.75 -16.984375 L 16.59375 -15.21875 C 16.476562 -14.363281 16.582031 -13.664062 16.90625 -13.125 C 17.226562 -12.59375 17.710938 -12.328125 18.359375 -12.328125 C 19.054688 -12.328125 19.644531 -12.617188 20.125 -13.203125 C 20.613281 -13.796875 20.859375 -14.519531 20.859375 -15.375 C 20.859375 -16.1875 20.46875 -17.019531 19.6875 -17.875 C 18.90625 -18.738281 17.414062 -20.054688 15.21875 -21.828125 C 13.070312 -23.597656 11.300781 -25.164062 9.90625 -26.53125 C 8.507812 -27.90625 7.300781 -29.597656 6.28125 -31.609375 C 5.257812 -33.617188 4.75 -35.914062 4.75 -38.5 C 4.75 -38.976562 4.800781 -39.804688 4.90625 -40.984375 C 5.5 -45.765625 7.484375 -49.628906 10.859375 -52.578125 C 14.242188 -55.535156 18.460938 -57.015625 23.515625 -57.015625 C 28.128906 -57.015625 31.765625 -55.78125 34.421875 -53.3125 C 37.078125 -50.84375 38.40625 -47.515625 38.40625 -43.328125 C 38.40625 -42.835938 38.351562 -42.054688 38.25 -40.984375 L 38.015625 -39.21875 C 37.960938 -38.84375 37.8125 -38.546875 37.5625 -38.328125 C 37.320312 -38.117188 37.039062 -38.015625 36.71875 -38.015625 L 24.5625 -38.015625 C 24.238281 -38.015625 23.984375 -38.117188 23.796875 -38.328125 C 23.609375 -38.546875 23.539062 -38.84375 23.59375 -39.21875 L 23.84375 -41.3125 C 23.894531 -42.113281 23.742188 -42.769531 23.390625 -43.28125 C 23.046875 -43.789062 22.550781 -44.046875 21.90625 -44.046875 C 21.15625 -44.046875 20.535156 -43.722656 20.046875 -43.078125 C 19.566406 -42.441406 19.328125 -41.582031 19.328125 -40.5 C 19.328125 -39.59375 19.703125 -38.65625 20.453125 -37.6875 C 21.203125 -36.71875 22.597656 -35.375 24.640625 -33.65625 C 27.378906 -31.351562 29.472656 -29.488281 30.921875 -28.0625 C 32.367188 -26.644531 33.507812 -25.085938 34.34375 -23.390625 C 35.175781 -21.703125 35.59375 -19.785156 35.59375 -17.640625 C 35.59375 -17.203125 35.539062 -16.445312 35.4375 -15.375 C 34.789062 -10.488281 32.757812 -6.597656 29.34375 -3.703125 C 25.9375 -0.804688 21.738281 0.640625 16.75 0.640625 Z M 16.75 0.640625 "/></g></g></g><g fill="#0ca5e9" fill-opacity="0.702"><g transform="translate(204.387809, 221.530605)"><g><path d="M 36.96875 -16.1875 C 36.375 -10.976562 34.316406 -6.976562 30.796875 -4.1875 C 27.285156 -1.394531 23.0625 0 18.125 0 L 1.609375 0 C 1.285156 0 1.03125 -0.101562 0.84375 -0.3125 C 0.65625 -0.53125 0.585938 -0.828125 0.640625 -1.203125 L 7.25 -55.15625 C 7.300781 -55.539062 7.445312 -55.835938 7.6875 -56.046875 C 7.925781 -56.265625 8.207031 -56.375 8.53125 -56.375 L 22.703125 -56.375 C 27.859375 -56.375 31.875 -55.285156 34.75 -53.109375 C 37.625 -50.929688 39.0625 -47.644531 39.0625 -43.25 C 39.0625 -42.707031 39.003906 -41.789062 38.890625 -40.5 C 38.253906 -35.507812 36.296875 -31.804688 33.015625 -29.390625 C 32.691406 -29.234375 32.613281 -29.070312 32.78125 -28.90625 C 35.675781 -26.4375 37.125 -22.972656 37.125 -18.515625 C 37.125 -18.035156 37.070312 -17.257812 36.96875 -16.1875 Z M 20.859375 -43.40625 C 20.585938 -43.40625 20.453125 -43.269531 20.453125 -43 L 19.40625 -34.796875 C 19.40625 -34.523438 19.515625 -34.390625 19.734375 -34.390625 L 20.21875 -34.390625 C 22.519531 -34.390625 23.890625 -35.890625 24.328125 -38.890625 L 24.40625 -39.9375 C 24.40625 -42.25 23.382812 -43.40625 21.34375 -43.40625 Z M 18.515625 -12.96875 C 19.703125 -12.96875 20.679688 -13.53125 21.453125 -14.65625 C 22.234375 -15.78125 22.625 -17.390625 22.625 -19.484375 C 22.625 -20.722656 22.382812 -21.71875 21.90625 -22.46875 C 21.425781 -23.21875 20.753906 -23.59375 19.890625 -23.59375 L 18.4375 -23.59375 C 18.164062 -23.59375 18.03125 -23.457031 18.03125 -23.1875 L 16.828125 -13.375 C 16.722656 -13.101562 16.832031 -12.96875 17.15625 -12.96875 Z M 18.515625 -12.96875 "/></g></g></g><g fill="#0ca5e9" fill-opacity="0.702"><g transform="translate(242.156926, 221.530605)"><g><path d="M 1.609375 0 C 1.285156 0 1.03125 -0.101562 0.84375 -0.3125 C 0.65625 -0.53125 0.585938 -0.828125 0.640625 -1.203125 L 7.25 -55.15625 C 7.300781 -55.539062 7.445312 -55.835938 7.6875 -56.046875 C 7.925781 -56.265625 8.207031 -56.375 8.53125 -56.375 L 20.9375 -56.375 C 21.257812 -56.375 21.515625 -56.265625 21.703125 -56.046875 C 21.890625 -55.835938 21.957031 -55.539062 21.90625 -55.15625 L 15.296875 -1.203125 C 15.242188 -0.828125 15.097656 -0.53125 14.859375 -0.3125 C 14.617188 -0.101562 14.335938 0 14.015625 0 Z M 1.609375 0 "/></g></g></g><g fill="#0ca5e9" fill-opacity="0.702"><g transform="translate(260.920692, 221.530605)"><g><path d="M 29.875 -55.15625 C 29.925781 -55.539062 30.070312 -55.835938 30.3125 -56.046875 C 30.5625 -56.265625 30.875 -56.375 31.25 -56.375 L 43.40625 -56.375 C 43.78125 -56.375 44.0625 -56.265625 44.25 -56.046875 C 44.4375 -55.835938 44.503906 -55.539062 44.453125 -55.15625 L 37.765625 -1.203125 C 37.710938 -0.828125 37.578125 -0.53125 37.359375 -0.3125 C 37.148438 -0.101562 36.859375 0 36.484375 0 L 22.546875 0 C 21.898438 0 21.523438 -0.347656 21.421875 -1.046875 L 18.359375 -25.765625 C 18.359375 -25.929688 18.300781 -26.015625 18.1875 -26.015625 C 18.082031 -26.015625 18.03125 -25.929688 18.03125 -25.765625 L 15.140625 -1.203125 C 15.085938 -0.828125 14.9375 -0.53125 14.6875 -0.3125 C 14.445312 -0.101562 14.164062 0 13.84375 0 L 1.609375 0 C 1.285156 0 1.03125 -0.101562 0.84375 -0.3125 C 0.65625 -0.53125 0.585938 -0.828125 0.640625 -1.203125 L 7.25 -55.15625 C 7.300781 -55.539062 7.445312 -55.835938 7.6875 -56.046875 C 7.925781 -56.265625 8.207031 -56.375 8.53125 -56.375 L 22.3125 -56.375 C 22.957031 -56.375 23.332031 -56.023438 23.4375 -55.328125 L 26.578125 -30.4375 C 26.578125 -30.28125 26.628906 -30.226562 26.734375 -30.28125 C 26.835938 -30.332031 26.921875 -30.410156 26.984375 -30.515625 Z M 29.875 -55.15625 "/></g></g></g><g fill="#ff8a00" fill-opacity="1"><g transform="translate(201.993757, 219.374986)"><g><path d="M 36.96875 -16.1875 C 36.375 -10.976562 34.316406 -6.976562 30.796875 -4.1875 C 27.285156 -1.394531 23.0625 0 18.125 0 L 1.609375 0 C 1.285156 0 1.03125 -0.101562 0.84375 -0.3125 C 0.65625 -0.53125 0.585938 -0.828125 0.640625 -1.203125 L 7.25 -55.15625 C 7.300781 -55.539062 7.445312 -55.835938 7.6875 -56.046875 C 7.925781 -56.265625 8.207031 -56.375 8.53125 -56.375 L 22.703125 -56.375 C 27.859375 -56.375 31.875 -55.285156 34.75 -53.109375 C 37.625 -50.929688 39.0625 -47.644531 39.0625 -43.25 C 39.0625 -42.707031 39.003906 -41.789062 38.890625 -40.5 C 38.253906 -35.507812 36.296875 -31.804688 33.015625 -29.390625 C 32.691406 -29.234375 32.613281 -29.070312 32.78125 -28.90625 C 35.675781 -26.4375 37.125 -22.972656 37.125 -18.515625 C 37.125 -18.035156 37.070312 -17.257812 36.96875 -16.1875 Z M 20.859375 -43.40625 C 20.585938 -43.40625 20.453125 -43.269531 20.453125 -43 L 19.40625 -34.796875 C 19.40625 -34.523438 19.515625 -34.390625 19.734375 -34.390625 L 20.21875 -34.390625 C 22.519531 -34.390625 23.890625 -35.890625 24.328125 -38.890625 L 24.40625 -39.9375 C 24.40625 -42.25 23.382812 -43.40625 21.34375 -43.40625 Z M 18.515625 -12.96875 C 19.703125 -12.96875 20.679688 -13.53125 21.453125 -14.65625 C 22.234375 -15.78125 22.625 -17.390625 22.625 -19.484375 C 22.625 -20.722656 22.382812 -21.71875 21.90625 -22.46875 C 21.425781 -23.21875 20.753906 -23.59375 19.890625 -23.59375 L 18.4375 -23.59375 C 18.164062 -23.59375 18.03125 -23.457031 18.03125 -23.1875 L 16.828125 -13.375 C 16.722656 -13.101562 16.832031 -12.96875 17.15625 -12.96875 Z M 18.515625 -12.96875 "/></g></g></g><g fill="#ff8a00" fill-opacity="1"><g transform="translate(239.762874, 219.374986)"><g><path d="M 1.609375 0 C 1.285156 0 1.03125 -0.101562 0.84375 -0.3125 C 0.65625 -0.53125 0.585938 -0.828125 0.640625 -1.203125 L 7.25 -55.15625 C 7.300781 -55.539062 7.445312 -55.835938 7.6875 -56.046875 C 7.925781 -56.265625 8.207031 -56.375 8.53125 -56.375 L 20.9375 -56.375 C 21.257812 -56.375 21.515625 -56.265625 21.703125 -56.046875 C 21.890625 -55.835938 21.957031 -55.539062 21.90625 -55.15625 L 15.296875 -1.203125 C 15.242188 -0.828125 15.097656 -0.53125 14.859375 -0.3125 C 14.617188 -0.101562 14.335938 0 14.015625 0 Z M 1.609375 0 "/></g></g></g><g fill="#ff8a00" fill-opacity="1"><g transform="translate(258.526639, 219.374986)"><g><path d="M 29.875 -55.15625 C 29.925781 -55.539062 30.070312 -55.835938 30.3125 -56.046875 C 30.5625 -56.265625 30.875 -56.375 31.25 -56.375 L 43.40625 -56.375 C 43.78125 -56.375 44.0625 -56.265625 44.25 -56.046875 C 44.4375 -55.835938 44.503906 -55.539062 44.453125 -55.15625 L 37.765625 -1.203125 C 37.710938 -0.828125 37.578125 -0.53125 37.359375 -0.3125 C 37.148438 -0.101562 36.859375 0 36.484375 0 L 22.546875 0 C 21.898438 0 21.523438 -0.347656 21.421875 -1.046875 L 18.359375 -25.765625 C 18.359375 -25.929688 18.300781 -26.015625 18.1875 -26.015625 C 18.082031 -26.015625 18.03125 -25.929688 18.03125 -25.765625 L 15.140625 -1.203125 C 15.085938 -0.828125 14.9375 -0.53125 14.6875 -0.3125 C 14.445312 -0.101562 14.164062 0 13.84375 0 L 1.609375 0 C 1.285156 0 1.03125 -0.101562 0.84375 -0.3125 C 0.65625 -0.53125 0.585938 -0.828125 0.640625 -1.203125 L 7.25 -55.15625 C 7.300781 -55.539062 7.445312 -55.835938 7.6875 -56.046875 C 7.925781 -56.265625 8.207031 -56.375 8.53125 -56.375 L 22.3125 -56.375 C 22.957031 -56.375 23.332031 -56.023438 23.4375 -55.328125 L 26.578125 -30.4375 C 26.578125 -30.28125 26.628906 -30.226562 26.734375 -30.28125 C 26.835938 -30.332031 26.921875 -30.410156 26.984375 -30.515625 Z M 29.875 -55.15625 "/></g></g></g></svg>